<?xml version="1.0" encoding="utf-8"?>
<!-- Generator: Adobe Illustrator 28.0.0, SVG Export Plug-In . SVG Version: 6.00 Build 0)  -->
<svg version="1.1" id="Слой_1" xmlns="http://www.w3.org/2000/svg" xmlns:xlink="http://www.w3.org/1999/xlink" x="0px" y="0px"
	 viewBox="0 0 202 56" style="enable-background:new 0 0 202 56;" xml:space="preserve">
<style type="text/css">
	.st0{fill:#1D1D1B;}
	.st1{fill:#FFFFFF;}
	.st2{fill:url(#SVGID_1_);}
	.st3{fill:url(#SVGID_00000074440783086737949770000001505921794837999035_);}
	.st4{fill:url(#SVGID_00000083067042431311007160000002065568975835918516_);}
	.st5{fill:url(#SVGID_00000183217959396053076660000018256544642930285219_);}
	.st6{fill:none;stroke:url(#SVGID_00000180356930206827467200000013864817742603331488_);}
</style>
<path class="st0" d="M0,42.4V13.3h7.4c1.3,0,2.4,0.1,3.5,0.3c1.1,0.2,2,0.6,2.8,1.2c0.8,0.6,1.5,1.3,1.9,2.3c0.5,1,0.7,2.2,0.7,3.8
	c0,1.2-0.2,2.2-0.5,3c-0.3,0.8-0.8,1.5-1.4,1.9c-0.6,0.5-1.4,0.8-2.3,1c1.1,0.2,2.1,0.6,2.8,1.2s1.3,1.4,1.7,2.4
	c0.4,1,0.6,2.2,0.6,3.6c0,1.5-0.2,2.7-0.6,3.8c-0.4,1.1-0.9,2-1.6,2.7c-0.7,0.7-1.6,1.2-2.7,1.6c-1.1,0.3-2.3,0.5-3.7,0.5H0z
	 M5.9,38.2h1.7c1.5,0,2.5-0.4,3.1-1.1c0.6-0.7,0.9-1.9,0.9-3.3c0-1.2-0.1-2.1-0.4-2.7c-0.3-0.7-0.7-1.2-1.3-1.5
	C9.2,29.2,8.5,29,7.5,29H5.9V38.2z M5.9,25h1.5c1,0,1.8-0.1,2.3-0.4c0.5-0.3,0.9-0.8,1.1-1.4c0.2-0.6,0.3-1.4,0.3-2.3
	s-0.2-1.6-0.5-2.1c-0.3-0.6-0.7-0.9-1.4-1.2c-0.6-0.2-1.4-0.4-2.3-0.4H5.9V25z"/>
<path class="st0" d="M34,42.4V13.3h5.9v29.1H34z"/>
<path class="st0" d="M57.7,42.4V13.3h5.9v25.1h6.8v4H57.7z"/>
<path class="st1" d="M86.9,42.4V13.3h6.3c1.3,0,2.4,0.2,3.3,0.5c0.9,0.3,1.6,0.8,2.2,1.5c0.6,0.6,0.9,1.4,1.2,2.3
	c0.3,0.9,0.4,1.9,0.4,2.9c0,0.9-0.1,1.8-0.4,2.7c-0.2,0.9-0.6,1.6-1.1,2.2c-0.5,0.6-1.3,1-2.2,1.2c1.1,0.3,2,0.9,2.7,1.6
	c0.6,0.7,1.1,1.6,1.3,2.6c0.3,1,0.4,2,0.4,3.1c0,1.2-0.1,2.2-0.3,3.3c-0.2,1-0.6,1.9-1.1,2.7c-0.5,0.8-1.2,1.4-2.1,1.8
	c-0.9,0.4-2,0.6-3.4,0.6H86.9z M89.6,40.4h3.9c1.9,0,3.2-0.5,3.8-1.5c0.6-1,1-2.6,1-4.8c0-1.2-0.1-2.2-0.4-3.1
	c-0.3-0.9-0.8-1.6-1.5-2.1c-0.7-0.5-1.6-0.8-2.8-0.8h-4V40.4z M89.6,25.8h4c1.1,0,2-0.2,2.6-0.6c0.6-0.5,1-1.1,1.3-1.8
	c0.2-0.8,0.4-1.7,0.4-2.8c0-1.2-0.2-2.1-0.5-2.9c-0.3-0.8-0.9-1.3-1.7-1.7c-0.8-0.4-1.9-0.5-3.4-0.5h-2.6V25.8z"/>
<linearGradient id="SVGID_1_" gradientUnits="userSpaceOnUse" x1="88.4995" y1="30.3691" x2="189.0565" y2="30.463" gradientTransform="matrix(1 0 0 -1 0 58.2202)">
	<stop  offset="0" style="stop-color:#EA4213"/>
	<stop  offset="1" style="stop-color:#FAFF10"/>
</linearGradient>
<path class="st2" d="M86.9,42.4V13.3h6.3c1.3,0,2.4,0.2,3.3,0.5c0.9,0.3,1.6,0.8,2.2,1.5c0.6,0.6,0.9,1.4,1.2,2.3
	c0.3,0.9,0.4,1.9,0.4,2.9c0,0.9-0.1,1.8-0.4,2.7c-0.2,0.9-0.6,1.6-1.1,2.2c-0.5,0.6-1.3,1-2.2,1.2c1.1,0.3,2,0.9,2.7,1.6
	c0.6,0.7,1.1,1.6,1.3,2.6c0.3,1,0.4,2,0.4,3.1c0,1.2-0.1,2.2-0.3,3.3c-0.2,1-0.6,1.9-1.1,2.7c-0.5,0.8-1.2,1.4-2.1,1.8
	c-0.9,0.4-2,0.6-3.4,0.6H86.9z M89.6,40.4h3.9c1.9,0,3.2-0.5,3.8-1.5c0.6-1,1-2.6,1-4.8c0-1.2-0.1-2.2-0.4-3.1
	c-0.3-0.9-0.8-1.6-1.5-2.1c-0.7-0.5-1.6-0.8-2.8-0.8h-4V40.4z M89.6,25.8h4c1.1,0,2-0.2,2.6-0.6c0.6-0.5,1-1.1,1.3-1.8
	c0.2-0.8,0.4-1.7,0.4-2.8c0-1.2-0.2-2.1-0.5-2.9c-0.3-0.8-0.9-1.3-1.7-1.7c-0.8-0.4-1.9-0.5-3.4-0.5h-2.6V25.8z"/>
<path class="st1" d="M116.6,42.4l6.1-29.1h2.9l6.2,29.1h-2.7l-1.4-7.8h-6.9l-1.5,7.8H116.6z M121.2,32.6h6.2l-3.1-15.7L121.2,32.6z"
	/>
<linearGradient id="SVGID_00000084511305421162554210000004897299026837428155_" gradientUnits="userSpaceOnUse" x1="88.4996" y1="30.3347" x2="189.0566" y2="30.4286" gradientTransform="matrix(1 0 0 -1 0 58.2202)">
	<stop  offset="0" style="stop-color:#EA4213"/>
	<stop  offset="1" style="stop-color:#FAFF10"/>
</linearGradient>
<path style="fill:url(#SVGID_00000084511305421162554210000004897299026837428155_);" d="M116.6,42.4l6.1-29.1h2.9l6.2,29.1h-2.7
	l-1.4-7.8h-6.9l-1.5,7.8H116.6z M121.2,32.6h6.2l-3.1-15.7L121.2,32.6z"/>
<path class="st1" d="M154.8,42.8c-1.6,0-2.9-0.3-4-1c-1-0.7-1.8-1.6-2.3-2.8c-0.5-1.2-0.9-2.6-1-4.2l2.4-0.7
	c0.1,1.2,0.3,2.3,0.6,3.3c0.3,1,0.8,1.7,1.5,2.3c0.7,0.6,1.6,0.8,2.8,0.8c1.3,0,2.3-0.3,3-1c0.7-0.7,1.1-1.7,1.1-3.2
	c0-1.3-0.3-2.4-1-3.3c-0.6-0.9-1.5-1.9-2.6-2.9l-5.1-4.9c-0.9-0.9-1.6-1.8-2-2.7c-0.4-1-0.6-2-0.6-3.1c0-2,0.6-3.6,1.8-4.6
	c1.2-1.1,2.8-1.6,4.8-1.6c1,0,2,0.1,2.8,0.4c0.8,0.3,1.5,0.7,2.1,1.3c0.6,0.6,1.1,1.3,1.4,2.3c0.3,0.9,0.6,2.1,0.7,3.4l-2.3,0.6
	c-0.1-1.2-0.3-2.3-0.6-3.1c-0.3-0.9-0.8-1.6-1.4-2c-0.6-0.5-1.5-0.7-2.6-0.7c-1.2,0-2.2,0.3-2.9,0.9s-1.2,1.6-1.2,2.9
	c0,0.8,0.1,1.5,0.4,2.2c0.3,0.6,0.9,1.3,1.6,2.1l5.1,4.9c1.1,1.1,2.1,2.3,3,3.6c0.8,1.3,1.3,2.8,1.3,4.5c0,1.5-0.3,2.7-0.9,3.7
	c-0.6,1-1.3,1.7-2.3,2.2C157.3,42.5,156.2,42.8,154.8,42.8z"/>
<linearGradient id="SVGID_00000121280119164953412860000011616002189242613637_" gradientUnits="userSpaceOnUse" x1="88.4996" y1="30.2733" x2="189.0566" y2="30.3672" gradientTransform="matrix(1 0 0 -1 0 58.2202)">
	<stop  offset="0" style="stop-color:#EA4213"/>
	<stop  offset="1" style="stop-color:#FAFF10"/>
</linearGradient>
<path style="fill:url(#SVGID_00000121280119164953412860000011616002189242613637_);" d="M154.8,42.8c-1.6,0-2.9-0.3-4-1
	c-1-0.7-1.8-1.6-2.3-2.8c-0.5-1.2-0.9-2.6-1-4.2l2.4-0.7c0.1,1.2,0.3,2.3,0.6,3.3c0.3,1,0.8,1.7,1.5,2.3c0.7,0.6,1.6,0.8,2.8,0.8
	c1.3,0,2.3-0.3,3-1c0.7-0.7,1.1-1.7,1.1-3.2c0-1.3-0.3-2.4-1-3.3c-0.6-0.9-1.5-1.9-2.6-2.9l-5.1-4.9c-0.9-0.9-1.6-1.8-2-2.7
	c-0.4-1-0.6-2-0.6-3.1c0-2,0.6-3.6,1.8-4.6c1.2-1.1,2.8-1.6,4.8-1.6c1,0,2,0.1,2.8,0.4c0.8,0.3,1.5,0.7,2.1,1.3
	c0.6,0.6,1.1,1.3,1.4,2.3c0.3,0.9,0.6,2.1,0.7,3.4l-2.3,0.6c-0.1-1.2-0.3-2.3-0.6-3.1c-0.3-0.9-0.8-1.6-1.4-2
	c-0.6-0.5-1.5-0.7-2.6-0.7c-1.2,0-2.2,0.3-2.9,0.9s-1.2,1.6-1.2,2.9c0,0.8,0.1,1.5,0.4,2.2c0.3,0.6,0.9,1.3,1.6,2.1l5.1,4.9
	c1.1,1.1,2.1,2.3,3,3.6c0.8,1.3,1.3,2.8,1.3,4.5c0,1.5-0.3,2.7-0.9,3.7c-0.6,1-1.3,1.7-2.3,2.2C157.3,42.5,156.2,42.8,154.8,42.8z"
	/>
<path class="st1" d="M178.5,42.4V13.3H189v2.1h-7.8v10.9h6.3v2h-6.3v12h7.8v2H178.5z"/>
<linearGradient id="SVGID_00000142877425096254429940000016096058523987836292_" gradientUnits="userSpaceOnUse" x1="88.4996" y1="30.282" x2="189.0566" y2="30.3759" gradientTransform="matrix(1 0 0 -1 0 58.2202)">
	<stop  offset="0" style="stop-color:#EA4213"/>
	<stop  offset="1" style="stop-color:#FAFF10"/>
</linearGradient>
<path style="fill:url(#SVGID_00000142877425096254429940000016096058523987836292_);" d="M178.5,42.4V13.3H189v2.1h-7.8v10.9h6.3v2
	h-6.3v12h7.8v2H178.5z"/>
<linearGradient id="SVGID_00000007421347435638022990000000955494921796384920_" gradientUnits="userSpaceOnUse" x1="87.5153" y1="30.3102" x2="200.9982" y2="30.0779" gradientTransform="matrix(1 0 0 -1 0 58.2202)">
	<stop  offset="0" style="stop-color:#EA4213;stop-opacity:0"/>
	<stop  offset="1" style="stop-color:#FAFF10"/>
</linearGradient>
<path style="fill:none;stroke:url(#SVGID_00000007421347435638022990000000955494921796384920_);" d="M78,1h123v54H78"/>
</svg>
