<svg width="118" height="96" viewBox="0 0 118 96" fill="none" xmlns="http://www.w3.org/2000/svg">
<g clip-path="url(#clip0_41_170)">
<mask id="mask0_41_170" style="mask-type:luminance" maskUnits="userSpaceOnUse" x="0" y="0" width="118" height="96">
<path d="M0 -2.86102e-06H117.333V96H0V-2.86102e-06Z" fill="white"/>
</mask>
<g mask="url(#mask0_41_170)">
<path d="M97.3751 18.6667H105.334C109.072 18.6667 112 21.5933 112 25.3333V84C112 87.74 109.064 90.4187 105.334 90.6667H97.3751V18.6667ZM25.2912 18.6667H92.0418V90.6667H25.2912V18.6667ZM12.0005 18.6667H19.9578V90.6667H12.0005C8.26049 90.6667 5.33382 87.74 5.33382 84V25.3333C5.33382 21.5933 8.26315 18.5413 12.0005 18.6667ZM41.3338 5.33333H76.0005V13.3333H41.3338V5.33333ZM41.3338 -2.86102e-06C38.4245 -2.86102e-06 36.0005 2.42533 36.0005 5.33333V13.3333H12.0005C5.39782 13.3333 0.000488281 18.732 0.000488281 25.3333V84C0.000488281 90.6013 5.39782 96 12.0005 96H105.334C111.935 96 117.334 90.6013 117.334 84V25.3333C117.334 18.732 111.935 13.3333 105.334 13.3333H81.3338V5.33333C81.3338 2.42533 78.9085 -2.86102e-06 76.0005 -2.86102e-06H41.3338Z" fill="white"/>
</g>
</g>
<defs>
<clipPath id="clip0_41_170">
<rect width="117.333" height="96.0001" fill="white"/>
</clipPath>
</defs>
</svg>
