<svg width="88" height="120" viewBox="0 0 88 120" fill="none" xmlns="http://www.w3.org/2000/svg">
<mask id="mask0_17_90" style="mask-type:luminance" maskUnits="userSpaceOnUse" x="0" y="0" width="88" height="120">
<path d="M0 4.71683e-06H87.2023V120H0V4.71683e-06Z" fill="white"/>
</mask>
<g mask="url(#mask0_17_90)">
<path d="M73.1694 80.4837V22.8929C73.1694 21.193 72.4751 19.6431 71.3568 18.5197C70.2322 17.4052 68.6836 16.7072 66.9836 16.7072H11.1817C9.47541 16.7072 7.92679 17.4002 6.80847 18.5197C5.6889 19.6381 4.99465 21.1879 4.99465 22.8929V108.811C4.99465 110.511 5.69391 112.06 6.81222 113.179C7.93179 114.298 9.48042 114.996 11.1817 114.996H38.6579V91.6781C38.6579 88.6734 39.8601 85.9364 41.804 83.9237L41.9416 83.7723C43.9693 81.7446 46.7689 80.4887 49.8473 80.4887H73.1706L73.1694 80.4837ZM58.9014 103.293H76.0089C77.7139 103.293 79.2638 102.599 80.3771 101.485C81.5017 100.361 82.1947 98.812 82.1947 97.1071V11.1894C82.1947 9.48816 81.4967 7.93953 80.3771 6.82121C79.2638 5.69664 77.7139 5.00239 76.0089 5.00239H20.207C18.507 5.00239 16.9571 5.70165 15.8388 6.82121C14.7192 7.93953 14.0212 9.48816 14.0212 11.1894V11.6973H66.9848C70.0633 11.6973 72.8629 12.9582 74.8906 14.9859C76.9183 17.0237 78.1743 19.8182 78.1743 22.8917V82.9893C78.1743 83.6297 77.9303 84.2702 77.4412 84.7581L58.9027 103.297L58.9014 103.293ZM9.01633 11.9124V11.1894C9.01633 8.11091 10.2773 5.31137 12.305 3.28364C14.3327 1.25466 17.1322 2.82479e-06 20.2107 2.82479e-06H76.0127C79.0812 2.82479e-06 81.882 1.25966 83.9147 3.28739C85.9474 5.31136 87.2033 8.11091 87.2033 11.1894V97.1071C87.2033 100.176 85.9424 102.975 83.9197 105.003L83.9047 105.018C81.8719 107.046 79.0762 108.301 76.0127 108.301H53.9016L42.9899 119.213C42.5358 119.697 41.8865 120 41.1673 120H11.1892C8.11192 120 5.31113 118.739 3.2834 116.716C1.25567 114.689 -0.000244141 111.888 -0.000244141 108.809V22.8917C-0.000244141 19.8182 1.26068 17.0237 3.2834 14.9959C4.83203 13.4523 6.81097 12.3528 9.02509 11.9124H9.01633ZM19.6691 67.7682C18.2856 67.7682 17.1673 66.6486 17.1673 65.2663C17.1673 63.8828 18.2856 62.7645 19.6691 62.7645H58.4962C59.8784 62.7645 60.998 63.8841 60.998 65.2663C60.998 66.6486 59.8784 67.7682 58.4962 67.7682H19.6691ZM19.6691 52.8448C18.2856 52.8448 17.1673 51.7252 17.1673 50.343C17.1673 48.9607 18.2856 47.8411 19.6691 47.8411H58.4962C59.8784 47.8411 60.998 48.9607 60.998 50.343C60.998 51.7252 59.8784 52.8448 58.4962 52.8448H19.6691ZM19.6691 37.9164C18.2856 37.9164 17.1673 36.7968 17.1673 35.4146C17.1673 34.0311 18.2856 32.9127 19.6691 32.9127H58.4962C59.8784 32.9127 60.998 34.0323 60.998 35.4146C60.998 36.7968 59.8784 37.9164 58.4962 37.9164H19.6691ZM43.6616 111.456L51.0057 104.112L51.0445 104.068L51.127 103.985L51.1721 103.946L69.623 85.4898H49.8386C48.1374 85.4898 46.5887 86.1891 45.4692 87.3074L45.3616 87.405C44.3071 88.5195 43.6516 90.0244 43.6516 91.6756V111.455L43.6616 111.456Z" fill="#FE4001"/>
</g>
</svg>
