<svg width="93" height="120" viewBox="0 0 93 120" fill="none" xmlns="http://www.w3.org/2000/svg">
<mask id="mask0_17_36" style="mask-type:luminance" maskUnits="userSpaceOnUse" x="0" y="0" width="94" height="120">
<path d="M0 0.000272707H93.0001V120H0V0.000272707Z" fill="white"/>
</mask>
<g mask="url(#mask0_17_36)">
<path d="M92.7852 114.765C92.7852 121.458 82.7727 121.458 82.7727 114.765C82.7727 108.072 92.7852 108.072 92.7852 114.765Z" fill="#FE4001"/>
</g>
<mask id="mask1_17_36" style="mask-type:luminance" maskUnits="userSpaceOnUse" x="0" y="0" width="94" height="120">
<path d="M0 0.000272707H93.0001V120H0V0.000272707Z" fill="white"/>
</mask>
<g mask="url(#mask1_17_36)">
<path d="M62.2925 94.2352C62.2925 96.9985 64.5437 99.2559 67.3036 99.2559C70.065 99.2559 72.3106 96.9985 72.3106 94.2352C72.3106 91.4719 70.0594 89.2145 67.3036 89.2145C64.5479 89.2145 62.2925 91.4719 62.2925 94.2352Z" fill="#FE4001"/>
</g>
<mask id="mask2_17_36" style="mask-type:luminance" maskUnits="userSpaceOnUse" x="0" y="0" width="94" height="120">
<path d="M0 0.000272707H93.0001V120H0V0.000272707Z" fill="white"/>
</mask>
<g mask="url(#mask2_17_36)">
<path d="M62.0845 116.642L89.6515 89.0052L93.0002 92.3631L65.4332 120L62.0845 116.642Z" fill="#FE4001"/>
</g>
<mask id="mask3_17_36" style="mask-type:luminance" maskUnits="userSpaceOnUse" x="0" y="0" width="94" height="120">
<path d="M0 0.000272707H93.0001V120H0V0.000272707Z" fill="white"/>
</mask>
<g mask="url(#mask3_17_36)">
<path d="M4.73738 110.428V8.48739C4.73738 6.42868 6.41104 4.75043 8.46975 4.75043H82.6464C84.7051 4.75043 86.3788 6.42868 86.3788 8.48739V78.3482H91.1117V8.48739C91.1117 3.80915 87.3119 0.000331717 82.6464 0.000331717L8.46975 0.00596506C3.80428 0.00596506 0.00586511 3.81479 0.00586511 8.49303L0.000244141 110.428C0.000244141 115.106 3.79866 118.915 8.46413 118.915H50.6543V114.171L8.46834 114.165C6.40964 114.165 4.73738 112.487 4.73738 110.428Z" fill="#FE4001"/>
</g>
<mask id="mask4_17_36" style="mask-type:luminance" maskUnits="userSpaceOnUse" x="0" y="0" width="94" height="120">
<path d="M0 0.000272707H93.0001V120H0V0.000272707Z" fill="white"/>
</mask>
<g mask="url(#mask4_17_36)">
<path d="M77.0924 27.114C77.0924 27.4381 76.8296 27.703 76.505 27.703H14.6131C14.2899 27.703 14.0257 27.4381 14.0257 27.114V15.7256C14.0257 15.4015 14.2899 15.1366 14.6131 15.1366H76.4994C76.824 15.1366 77.0868 15.4015 77.0868 15.7256V27.114H77.0924ZM81.8239 15.7256C81.8239 12.7862 79.4364 10.3865 76.4994 10.3865H14.6131C11.6817 10.3865 9.28857 12.7749 9.28857 15.7256V27.114C9.28857 30.0534 11.6761 32.4531 14.6131 32.4531H76.4994C79.4307 32.4531 81.8239 30.0647 81.8239 27.114V15.7256Z" fill="#FE4001"/>
</g>
<mask id="mask5_17_36" style="mask-type:luminance" maskUnits="userSpaceOnUse" x="0" y="0" width="94" height="120">
<path d="M0 0.000272707H93.0001V120H0V0.000272707Z" fill="white"/>
</mask>
<g mask="url(#mask5_17_36)">
<path d="M26.5581 53.0407H14.0259V40.4743H26.5581V53.0407ZM31.2896 39.5936C31.2896 37.463 29.5611 35.7241 27.4363 35.7241H13.1533C11.0285 35.7241 9.29443 37.463 9.29443 39.5936V53.9157C9.29443 56.0463 11.0285 57.7852 13.1533 57.7852H27.4363C29.5611 57.7852 31.2896 56.0463 31.2896 53.9157V39.5936Z" fill="#FE4001"/>
</g>
<mask id="mask6_17_36" style="mask-type:luminance" maskUnits="userSpaceOnUse" x="0" y="0" width="94" height="120">
<path d="M0 0.000272707H93.0001V120H0V0.000272707Z" fill="white"/>
</mask>
<g mask="url(#mask6_17_36)">
<path d="M51.8247 53.0387H39.2926V40.4723H51.8247V53.0387ZM52.6973 35.7222H38.4143C36.2895 35.7222 34.5554 37.4624 34.5554 39.5916V53.9138C34.5554 56.0444 36.2895 57.7832 38.4143 57.7832H52.6973C54.8221 57.7832 56.5562 56.0444 56.5562 53.9138V39.5916C56.5562 37.4624 54.8221 35.7222 52.6973 35.7222Z" fill="#FE4001"/>
</g>
<mask id="mask7_17_36" style="mask-type:luminance" maskUnits="userSpaceOnUse" x="0" y="0" width="94" height="120">
<path d="M0 0.000272707H93.0001V120H0V0.000272707Z" fill="white"/>
</mask>
<g mask="url(#mask7_17_36)">
<path d="M77.0871 53.0387H64.555V40.4723H77.0871V53.0387ZM63.6767 35.7222C61.552 35.7222 59.8179 37.4624 59.8179 39.5916V53.9138C59.8179 56.0444 61.552 57.7832 63.6767 57.7832H77.9598C80.0845 57.7832 81.8186 56.0444 81.8186 53.9138V39.5916C81.8186 37.4624 80.0845 35.7222 77.9598 35.7222H63.6767Z" fill="#FE4001"/>
</g>
<mask id="mask8_17_36" style="mask-type:luminance" maskUnits="userSpaceOnUse" x="0" y="0" width="94" height="120">
<path d="M0 0.000272707H93.0001V120H0V0.000272707Z" fill="white"/>
</mask>
<g mask="url(#mask8_17_36)">
<path d="M26.5581 78.3659H14.0259V65.7994H26.5581V78.3659ZM31.2896 64.9244C31.2896 62.7938 29.5611 61.055 27.4363 61.055H13.1533C11.0285 61.055 9.29443 62.7938 9.29443 64.9244V79.2466C9.29443 81.3771 11.0285 83.1104 13.1533 83.1104H27.4363C29.5611 83.1104 31.2896 81.3771 31.2896 79.2466V64.9244Z" fill="#FE4001"/>
</g>
<mask id="mask9_17_36" style="mask-type:luminance" maskUnits="userSpaceOnUse" x="0" y="0" width="94" height="120">
<path d="M0 0.000272707H93.0001V120H0V0.000272707Z" fill="white"/>
</mask>
<g mask="url(#mask9_17_36)">
<path d="M51.8247 78.3711H39.2926V65.8047H51.8247V78.3711ZM52.6973 61.0545H38.4143C36.2895 61.0545 34.5554 62.7948 34.5554 64.924V79.2461C34.5554 81.3767 36.2895 83.1113 38.4143 83.1113H52.6973C54.8221 83.1113 56.5562 81.3767 56.5562 79.2461V64.924C56.5562 62.7948 54.8221 61.0545 52.6973 61.0545Z" fill="#FE4001"/>
</g>
<mask id="mask10_17_36" style="mask-type:luminance" maskUnits="userSpaceOnUse" x="0" y="0" width="94" height="120">
<path d="M0 0.000272707H93.0001V120H0V0.000272707Z" fill="white"/>
</mask>
<g mask="url(#mask10_17_36)">
<path d="M64.5548 65.7987H77.0869V78.3651H64.5548V65.7987ZM77.9652 83.1152C80.0899 83.1152 81.824 81.382 81.824 79.2515V64.9293C81.824 62.7987 80.0899 61.0599 77.9652 61.0599H63.6821C61.5573 61.0599 59.8232 62.7987 59.8232 64.9293V79.2515C59.8232 81.382 61.5573 83.1152 63.6821 83.1152H77.9652Z" fill="#FE4001"/>
</g>
<mask id="mask11_17_36" style="mask-type:luminance" maskUnits="userSpaceOnUse" x="0" y="0" width="94" height="120">
<path d="M0 0.000272707H93.0001V120H0V0.000272707Z" fill="white"/>
</mask>
<g mask="url(#mask11_17_36)">
<path d="M26.5581 103.707H14.0259V91.1406H26.5581V103.707ZM27.4363 86.3905H13.1533C11.0285 86.3905 9.29443 88.1251 9.29443 90.2543V104.576C9.29443 106.707 11.0285 108.447 13.1533 108.447H27.4363C29.5611 108.447 31.2896 106.707 31.2896 104.576V90.2543C31.2896 88.1251 29.5611 86.3905 27.4363 86.3905Z" fill="#FE4001"/>
</g>
<mask id="mask12_17_36" style="mask-type:luminance" maskUnits="userSpaceOnUse" x="0" y="0" width="94" height="120">
<path d="M0 0.000272707H93.0001V120H0V0.000272707Z" fill="white"/>
</mask>
<g mask="url(#mask12_17_36)">
<path d="M51.8247 103.707H39.2926V91.1406H51.8247V103.707ZM52.6973 86.3905H38.4143C36.2895 86.3905 34.5554 88.1251 34.5554 90.2543V104.576C34.5554 106.707 36.2895 108.447 38.4143 108.447H52.6973C54.8221 108.447 56.5562 106.707 56.5562 104.576V90.2543C56.5562 88.1251 54.8221 86.3905 52.6973 86.3905Z" fill="#FE4001"/>
</g>
</svg>
