<svg width="131" height="121" viewBox="0 0 131 121" fill="none" xmlns="http://www.w3.org/2000/svg">
<mask id="mask0_17_96" style="mask-type:luminance" maskUnits="userSpaceOnUse" x="0" y="0" width="131" height="121">
<path d="M0 0.666987H130.999V120.667H0V0.666987Z" fill="white"/>
</mask>
<g mask="url(#mask0_17_96)">
<path d="M16.7206 95.3077H25.0595V116.133H16.7206V95.3077ZM76.2028 79.3928H84.5332V116.133H76.2028V79.3928ZM46.4659 63.4694H54.7964V116.125H46.4659V63.4694ZM20.8858 54.4364C23.4891 54.4364 25.5546 56.4932 25.5546 59.1157C25.5546 61.7468 23.4891 63.8208 20.8858 63.8208C18.2911 63.8208 16.2341 61.7468 16.2341 59.1157C16.2341 56.4932 18.2911 54.4364 20.8858 54.4364ZM105.94 47.5545H114.279V116.133H105.94V47.5545ZM81.1532 46.6975C83.7479 46.6975 85.8049 48.7629 85.8049 51.3854C85.8049 54.0079 83.7479 56.0904 81.1532 56.0904C78.5585 56.0904 76.4844 54.0079 76.4844 51.3854C76.4844 48.7629 78.5585 46.6975 81.1532 46.6975ZM103.695 43.0209C102.44 43.0123 101.433 44.0236 101.424 45.2748C101.424 45.2834 101.424 45.292 101.424 45.292V116.133H89.0483V77.1132C89.0483 75.8619 88.0326 74.8506 86.7865 74.8592H73.9494C72.7033 74.8506 71.6876 75.8619 71.6791 77.1132V116.133H59.3115V61.2069C59.32 59.9556 58.3129 58.9358 57.0667 58.9358C57.0582 58.9358 57.0497 58.9358 57.0497 58.9358H44.2126C42.958 58.9272 41.9423 59.9385 41.9423 61.1897C41.9423 61.1983 41.9423 61.2069 41.9423 61.2069V116.133H29.5747V93.028C29.5662 91.7768 28.5505 90.7655 27.3043 90.7741H14.4673C13.2212 90.7655 12.2055 91.7768 12.2055 93.028V116.133H2.27043C1.01575 116.125 0.0085891 117.136 5.38507e-05 118.387C-0.0084814 119.647 0.998678 120.658 2.25336 120.667C2.25336 120.667 2.26189 120.667 2.27043 120.667H14.4673H27.3043H44.2126H57.0497H73.9494H86.7865H103.695H116.523H128.729C129.975 120.676 130.991 119.664 130.999 118.404C130.999 118.404 130.999 118.396 130.999 118.387C130.991 117.136 129.975 116.125 128.729 116.133H118.794V45.292C118.802 44.0407 117.795 43.0209 116.54 43.0209C116.54 43.0209 116.532 43.0209 116.523 43.0209H103.695ZM50.6311 26.4804C53.2259 26.4804 55.2999 28.5458 55.2999 31.1683C55.2999 33.7908 53.2259 35.8733 50.6311 35.8733C48.0364 35.8733 45.9794 33.7908 45.9794 31.1683C45.9794 28.5458 48.0364 26.4804 50.6311 26.4804ZM110.105 5.20057C112.708 5.20057 114.774 7.26599 114.774 9.88847C114.774 12.511 112.708 14.5935 110.105 14.5935C107.51 14.5935 105.453 12.511 105.453 9.88847C105.453 7.26599 107.51 5.20057 110.105 5.20057ZM109.874 0.66693C104.932 0.795483 100.938 4.90061 100.938 9.88847C100.938 12.1767 101.783 14.2764 103.166 15.8962L84.4051 42.7638C83.3894 42.3781 82.2969 42.1639 81.1532 42.1639C78.7804 42.1639 76.6039 43.0809 74.9737 44.5892L59.2944 34.2021C59.6358 33.2508 59.8151 32.231 59.8151 31.1683C59.8151 26.0947 55.6755 21.9467 50.6311 21.9467C45.5868 21.9467 41.4643 26.0947 41.4643 31.1683C41.4643 32.7709 41.874 34.2793 42.5995 35.5991L25.8448 51.3683C24.4109 50.4341 22.7124 49.8942 20.8858 49.8942C15.85 49.8942 11.719 54.0507 11.719 59.1243C11.719 64.1893 15.85 68.3544 20.8858 68.3544C25.9301 68.3544 30.0697 64.1893 30.0697 59.1243C30.0697 57.5131 29.66 56.0047 28.926 54.6849L45.6892 38.9329C47.1146 39.867 48.8131 40.407 50.6311 40.407C53.0039 40.407 55.1719 39.4814 56.8021 37.9816L72.4899 48.3687C72.1656 49.32 71.9863 50.3313 71.9863 51.3854C71.9863 56.459 76.1089 60.6241 81.1532 60.6241C86.1975 60.6241 90.3201 56.459 90.3201 51.3854C90.3201 49.1057 89.4836 47.006 88.1009 45.3863L106.853 18.5187C107.869 18.9129 108.961 19.1357 110.113 19.1357C115.149 19.1357 119.28 14.9535 119.28 9.88847C119.28 4.82348 115.149 0.66693 110.113 0.66693C110.036 0.66693 109.951 0.66693 109.874 0.66693Z" fill="#FE4001"/>
</g>
</svg>
