<svg width="121" height="120" viewBox="0 0 121 120" fill="none" xmlns="http://www.w3.org/2000/svg">
<g clip-path="url(#clip0_17_21)">
<mask id="mask0_17_21" style="mask-type:luminance" maskUnits="userSpaceOnUse" x="0" y="0" width="121" height="120">
<path d="M0 -3.57628e-06H120.267V120H0V-3.57628e-06Z" fill="white"/>
</mask>
<g mask="url(#mask0_17_21)">
<path d="M113.867 21.2005L108.267 26.8005L100.667 19.2005L93.0666 11.6005L98.6666 6.00046C99.7332 4.93379 101.467 4.93379 102.4 6.00046L113.733 17.3338C114.267 17.8671 114.533 18.5338 114.533 19.2005C114.667 20.0005 114.4 20.6671 113.867 21.2005ZM55.4666 79.6005L40.3999 64.5338L89.3332 15.6005L96.9332 23.2005L104.533 30.8005L55.4666 79.6005ZM38.7999 86.5338L33.4666 81.2005L36.6666 70.4005L49.5999 83.3338L38.7999 86.5338ZM117.6 13.6005L106.267 2.26712C104.8 0.800451 102.8 0.000454958 100.667 0.000454958C98.5332 0.000454958 96.5332 0.800449 95.0666 2.40045L89.3332 8.00046L32.7999 64.5338L26.1332 86.9338C25.4666 88.9338 25.7332 90.9338 26.7999 92.2671C27.7332 93.4671 29.1999 94.1338 30.9332 94.1338C31.5999 94.1338 32.3999 94.0005 33.0666 93.7338L55.4666 87.0671L55.5999 87.2005L108.4 34.4004L117.867 24.9338C119.333 23.4671 120.267 21.4671 120.267 19.3338C120 17.2005 119.2 15.2005 117.6 13.6005Z" fill="#FE4001"/>
</g>
<mask id="mask1_17_21" style="mask-type:luminance" maskUnits="userSpaceOnUse" x="0" y="0" width="121" height="120">
<path d="M0 -3.57628e-06H120.267V120H0V-3.57628e-06Z" fill="white"/>
</mask>
<g mask="url(#mask1_17_21)">
<path d="M84.4001 25.7338L50.5334 59.6005C49.4667 60.6671 49.4667 62.2671 50.5334 63.3338C51.6001 64.4005 53.2001 64.4005 54.2667 63.3338L88.2667 29.3338C89.3334 28.2671 89.3334 26.6671 88.2667 25.6005C87.2001 24.6671 85.4667 24.6671 84.4001 25.7338Z" fill="#FE4001"/>
</g>
<mask id="mask2_17_21" style="mask-type:luminance" maskUnits="userSpaceOnUse" x="0" y="0" width="121" height="120">
<path d="M0 -3.57628e-06H120.267V120H0V-3.57628e-06Z" fill="white"/>
</mask>
<g mask="url(#mask2_17_21)">
<path d="M84.9333 109.333C84.9333 112.267 82.5333 114.667 79.6 114.667H10.6667C7.73333 114.667 5.33333 112.267 5.33333 109.333V40.4C5.33333 37.4667 7.73333 35.0667 10.6667 35.0667H45.2V29.7333H10.6667C4.8 29.7333 0 34.5333 0 40.4V109.333C0 115.2 4.8 120 10.6667 120H79.6C85.4667 120 90.2667 115.2 90.2667 109.333V75.2H84.9333V109.333Z" fill="#FE4001"/>
</g>
</g>
<defs>
<clipPath id="clip0_17_21">
<rect width="120.267" height="120" fill="white"/>
</clipPath>
</defs>
</svg>
